<?xml version="1.0" encoding="utf-8"?>
<!-- Generator: Adobe Illustrator 28.1.0, SVG Export Plug-In . SVG Version: 6.00 Build 0)  -->
<svg version="1.1" id="Layer_1" xmlns="http://www.w3.org/2000/svg" xmlns:xlink="http://www.w3.org/1999/xlink" x="0px" y="0px"
	 viewBox="0 0 1920 1080" style="enable-background:new 0 0 1920 1080;" xml:space="preserve">
<style type="text/css">
	.st0{fill:#FFFFFF;}
</style>
<g>
	<path d="M2333.61,837.96c-1.03,0.41-2.1,0.75-3.08,1.26c-11.63,6.01-24.07,9.35-36.95,11.29c-10.2,1.53-20.4,1.25-30.62,0.41
		c-1.73-0.14-3.51-0.06-5.23,0.17c-26.92,3.69-53.29,1.68-78.89-7.73c-9.44-3.47-18.69-7.47-28.09-11.08
		c-6.86-2.64-13.77-5.12-20.72-7.52c-8.27-2.85-16.73-2.62-25.08-0.61c-6.51,1.57-12.9,3.67-19.32,5.59
		c-3.37,1.01-6.67,2.24-10.04,3.21c-12.11,3.49-24.28,3.68-36.42,0.19c-2.42-0.7-4.92-1.37-7.41-3.44c2.07,0.33,3.58,0.54,5.08,0.81
		c10.34,1.91,20.4,0.74,30.17-2.91c4.18-1.56,8.26-3.44,12.33-5.29c5.96-2.71,11.88-5.52,17.81-8.3c6.32-2.97,13.01-4.34,19.93-4.71
		c8.71-0.47,17.26,0.48,25.54,3.28c6.35,2.14,12.65,4.45,18.96,6.71c0.87,0.31,1.66,0.93,3,0.37c-2.99-2.55-5.23-5.69-9.13-6.88
		c-1.34-0.41-2.48-1.43-3.73-2.15c-7.13-4.08-14.65-7.09-22.8-8.42c-8.04-1.31-15.92-0.83-23.66,1.8
		c-7.56,2.57-15.12,5.16-22.7,7.69c-5.16,1.72-10.41,3.1-15.81,3.89c-8.14,1.19-15.95,0.19-23.28-3.67
		c-1.95-1.03-3.97-2.07-5.59-4.45c1.49,0.41,2.54,0.63,3.55,0.98c7.52,2.55,15.12,2.6,22.63,0.24c5.32-1.67,10.52-3.77,15.73-5.79
		c7.45-2.88,14.9-5.75,22.74-7.47c17.15-3.76,32.66-0.37,46.48,10.52c1.56,1.23,3.1,2.48,4.89,3.48
		c-3.77-5.37-7.62-10.61-10.73-16.33c-3.07-5.63-5.7-11.45-7.66-17.55c-2-6.23-3.85-12.51-5.81-18.93
		c-2.53-1.44-5.16-2.93-7.82-4.45c-0.4-1.93-0.73-3.81-1.18-5.66c-0.5-2.01-1.01-4.03-1.7-5.99c-2.42-6.96-2.46-6.94-9.13-9.93
		c-16.28-7.31-31.41-16.46-45.2-27.82c-2.95-2.43-6.22-4.48-9.33-6.72c-1.28-0.92-2.51-1.89-3.93-2.95
		c0.57-1.21,1.01-2.16,1.38-2.95c0.62-0.09,1-0.27,1.22-0.16c1.12,0.59,2.25,1.19,3.3,1.91c8.77,6.03,18.42,10.22,28.47,13.57
		c0.59,0.2,1.24,0.21,1.63,0.28c0.39-0.16,0.55-0.2,0.68-0.28c0.14-0.08,0.31-0.17,0.37-0.3c18.82-43.74,39.04-86.85,58.81-130.28
		c-2.48-4.7-6.27-7.99-10.63-10.79c-5.39-3.46-11.1-6.31-16.75-9.28c-1.26-0.67-2.49-1.41-3.66-2.23c-0.27-0.19-0.44-0.99-0.27-1.24
		c0.31-0.46,0.89-0.95,1.41-1.01c0.57-0.06,1.22,0.29,1.78,0.57c2.15,1.06,4.27,2.16,6.69,3.39c0.95-0.71,2.01-1.38,2.92-2.2
		c7.02-6.34,13.36-13.33,19.2-20.76c7.01-8.93,13.81-18.02,20.77-26.99c1.15-1.48,1.66-2.98,1.63-4.84
		c-0.11-5.44-0.09-10.87-0.12-16.31c-0.01-1.28-0.03-2.56,0.07-3.83c0.09-1.08,0.81-1.69,1.87-1.84c1.08-0.15,2.01,0.36,2.37,1.25
		c0.4,1,0.5,2.17,0.54,3.27c0.39,10.87,0.83,21.73,1.06,32.6c0.07,3.16,0.79,5.84,2.59,8.48c6.57,9.65,12.97,19.41,19.39,29.16
		c1.17,1.78,2.57,3.11,4.55,4.06c7.73,3.71,14.46,8.79,20.19,15.18c0.52,0.58,1.1,1.1,1.93,1.93c0.5-0.92,0.99-1.52,1.16-2.2
		c2.37-9.27,2.65-18.61,1.22-28.07c-1.78-11.79-5.17-23.04-10.49-33.73c-1.18-2.37-2.78-4.17-4.97-5.65
		c-8.99-6.11-17.91-12.33-26.84-18.53c-1.67-1.16-2.25-2.29-1.58-2.94c1.03-1.01,2.05-0.43,3.05,0.13c0.69,0.39,1.39,0.78,2.02,1.13
		c7.7-2.21,14.54-5.82,20.87-10.58c14.72-11.07,28.88-22.77,41.87-35.85c7.11-7.17,13.64-14.81,19.2-23.28
		c1.47-2.23,2.14-4.49,2.12-7.17c-0.08-11.19-0.02-22.39,0.03-33.58c0.01-1.42,0.14-2.86,0.43-4.25c0.08-0.39,0.91-0.77,1.45-0.87
		c0.3-0.05,0.97,0.44,1.03,0.78c0.49,2.66,0.9,5.34,1.3,8.02c0.2,1.38,0.33,2.77,0.51,4.37c8.7-1.95,16.85-0.46,24.96,1.52
		c6.37,1.55,12.76,2.91,19.28,3.72c10.81,1.34,21.36,0.5,31.74-2.8c1.15-0.36,2.3-1.13,3.64-0.58c-1,2.6-2.31,4.16-6.4,6.57
		c-2.73,1.62-5.64,3.03-8.62,4.12c-2.97,1.09-6.14,1.68-9.54,2.58c0.69,0.45,1.22,1.06,1.84,1.16c4.41,0.73,8.85,1.29,13.26,2.03
		c3.3,0.55,6.58,1.25,9.85,1.96c0.5,0.11,0.91,0.66,1.35,1c-0.27,0.36-0.34,0.55-0.44,0.58c-5.82,1.71-11.6,3.54-17.47,5.04
		c-2.76,0.71-5.67,0.98-8.53,1.13c-10.94,0.57-21.69-0.89-32.32-3.42c-5.15-1.23-10.37-1.93-15.69-1.58
		c-2.07,0.14-4.14,0.28-6.17,1.69c-0.45,3.82-0.26,7.59,1.43,11.44c6.59,14.93,14.11,29.39,22.02,43.65
		c7.52,13.56,15.14,27.06,22.63,40.64c1.19,2.16,2.83,3.83,4.59,5.46c13.59,12.59,25.14,26.81,34.18,43.01
		c7.76,13.92,13.44,28.61,16.27,44.35c1.51,8.4,1.5,16.86,1.06,25.33c-0.96,18.41-5.31,35.99-12.81,52.81
		c-0.32,0.72-0.56,1.49-0.9,2.37c0.54,1.43,1.11,2.91,1.65,4.4c3.37,9.31,6.79,18.6,10.05,27.95c0.72,2.06,1.7,3.65,3.48,4.93
		c4.69,3.36,9.58,6.38,14.83,8.79c1.44,0.66,2.88,1.35,4.38,2.07c0.43,2.67-0.67,5.12-0.65,7.64c0.03,2.54,0.15,5.08,0.23,7.68
		c1.81,0.81,3.38,1.51,5.03,2.24c0.13,4.12-3.09,7.16-2.97,11.36c0.48,0.45,1.15,1.07,2,1.86c-0.17,0.79-0.41,1.69-0.56,2.61
		c-0.68,4.26-1.45,8.51-1.96,12.78c-0.54,4.55-2.13,8.64-4.57,12.49c-3.71,5.85-8.02,11.19-13.26,15.71
		c-5.32,4.6-10.78,9.04-16.18,13.55c-1.33,1.11-2.66,2.23-3.71,3.86c0.87-0.23,1.75-0.41,2.6-0.69c5.72-1.82,11.59-2.35,17.54-1.84
		c8.51,0.73,16.81,2.58,24.38,6.58c7.99,4.22,16.14,4.74,24.62,2.24c4.9-1.45,9.74-3.11,14.57-4.75c6.09-2.06,12.31-3.44,18.75-3.66
		c0.64-0.02,1.28-0.04,1.91,0.02c0.29,0.03,0.57,0.25,1.02,0.47c-0.37,0.32-0.64,0.73-1.01,0.84c-7.66,2.44-14.72,6.15-21.76,9.96
		c-4.06,2.2-8.26,4.2-12.52,6c-7.09,2.98-14.32,2.8-21.59,0.51c-3.53-1.11-6.9-2.52-10.05-4.45c-13.22-8.1-27.48-9.82-42.49-6.97
		c-2.05,0.39-3.92,1.12-5.62,2.48c-6.23,4.99-12.57,9.84-18.85,14.77c-0.2,0.16-0.22,0.55-0.32,0.83l0.17-0.17
		c-0.94-0.07-1.75,0.09-2.14,1.09C2333.43,838.14,2333.61,837.96,2333.61,837.96z M2119.77,713.14c3.65-3.29,6.78-6.7,9.81-10.2
		c11-12.72,19.48-26.87,24.88-42.86c5.42-16.05,6.49-32.53,5.01-49.26c-0.54-6.05-1.58-12.05-3.58-17.83
		c-0.39-1.14-0.93-2.22-1.57-3.74c-1.49,1.53-1.78,3.11-2.31,4.54c-8.94,23.95-17.96,47.87-26.78,71.87
		c-4.84,13.2-9.36,26.51-13.93,39.81c-0.6,1.75-1.52,3.51-1.33,5.52C2112.99,712.59,2116.29,712.24,2119.77,713.14z M2272.07,414.53
		c-1.25,1.61-1.85,2.3-2.37,3.05c-4.82,7-10.22,13.54-16.25,19.51c-14.1,13.97-28.92,27.13-44.9,38.94
		c-0.54,0.4-0.97,0.96-1.95,1.94c7.66-1.36,14.66-1.88,21.69-2.04c7.51-0.17,15.02-0.4,22.54-0.47c3.51-0.03,7.03,0.23,10.54,0.36
		c0.62,0.02,1.24,0,1.97,0c0.41-1.01,0.85-1.86,1.09-2.75c2.57-9.4,5.14-18.8,7.63-28.22c0.36-1.37,0.45-2.84,0.45-4.27
		c-0.01-7.52-0.08-15.03-0.14-22.55C2272.37,417.25,2272.25,416.47,2272.07,414.53z M2276.6,735.84c-3.59-1.66-6.88-2.12-10.23-2.39
		c-9.27-0.75-18.07,1.32-26.74,4.29c-1.61,0.55-2.58,1.6-3.4,3.1c-3.14,5.74-6.43,11.39-9.66,17.08c-0.54,0.95-1.02,1.92-1.59,3
		c0.64,0.47,1.1,0.93,1.65,1.2c7.41,3.53,15.36,5.31,23.3,7.09c1.07,0.24,2.23,0.13,3.34,0.07c6.85-0.39,13.7-0.8,20.55-1.25
		c0.9-0.06,1.77-0.41,2.94-0.7C2276.78,756.76,2276.7,746.42,2276.6,735.84z M2278.02,420.29c-0.03,0.89-0.12,1.79-0.09,2.69
		c0.27,9.43,0.53,18.86,0.86,28.29c0.05,1.41,0.33,2.87,0.79,4.2c2.84,8.31,5.8,16.59,8.63,24.9c0.62,1.83,1.7,2.86,3.49,3.58
		c3.7,1.49,7.45,2.96,10.91,4.93c5.41,3.08,10.57,6.59,15.87,9.87c0.67,0.41,1.24,1.49,2.61,0.57
		c-14.49-26.16-29.66-51.91-42.35-78.97C2278.7,420.3,2278.46,420.33,2278.02,420.29z M2107.85,710.7c0.48-1.4,0.84-2.45,1.2-3.5
		c3.01-8.93,5.8-17.94,9.06-26.77c10.48-28.48,21.13-56.89,31.71-85.33c0.95-2.54,1.83-5.11,2.84-7.63c0.68-1.7,0.25-3.02-1.15-4.34
		c-1.26,1.42-1.73,3.13-2.42,4.71c-10.3,23.91-20.56,47.84-30.89,71.74c-6.66,15.39-13.32,30.78-19.13,46.52
		c-0.31,0.85-0.44,1.76-0.68,2.77C2101.52,709.8,2104.39,710.65,2107.85,710.7z M2096.32,708.49c0.42-0.98,0.74-1.68,1.03-2.4
		c3.73-9.34,7.27-18.77,11.22-28.02c13.28-31.14,26.7-62.23,40.07-93.33c0.44-1.03,0.95-2.03,1.32-3.08
		c0.64-1.81,0.51-2.09-1.88-4.43c-0.87,1.78-1.74,3.46-2.52,5.17c-10.5,22.95-21.07,45.86-31.45,68.86
		c-7.75,17.18-15.26,34.46-22.85,51.71c-0.49,1.1-1.24,2.19-0.95,3.86C2092.26,707.38,2094.21,707.91,2096.32,708.49z
		 M2170.34,506.11c-1.04,0.55-1.4,0.62-1.57,0.84c-4.28,5.59-8.54,11.18-12.79,16.79c-7.55,9.95-15.62,19.44-24.47,28.27
		c-0.09,0.09-0.08,0.31-0.07,0.46c0.01,0.11,0.11,0.21,0.24,0.42c4.47-0.94,8.97-2.01,13.51-2.82c4.68-0.83,9.41-1.4,14.32-2.11
		c3.47-9.13,6.87-18.09,10.26-27.05c0.28-0.74,0.56-1.53,0.57-2.31C2170.39,514.65,2170.35,510.68,2170.34,506.11z M2168.98,703.8
		c-11.18-1.71-21.34,1.1-31.49,3.81c-4.22,1.13-8.47,2.42-12.48,5.98c3.35,0.91,6.21,0.88,8.95,1.32c2.83,0.46,5.71,0.62,8.57,0.85
		c3.02,0.25,6.05,0.43,9.07,0.64c2.86,0.21,5.72,0.53,8.59,0.62c2.8,0.08,5.64,0.57,8.64-0.16
		C2169.18,712.5,2169.28,708.41,2168.98,703.8z M2203.39,723.25c-1.56,3.17-2.12,6.62-3.02,9.94c-0.89,3.31-2.47,6.52-2.21,10.3
		c3.93,0.95,7.76,1.88,11.53,2.79c2.18,4.2,4.76,7.8,8.38,10.55c0.54,0.41,1.26,0.6,2.03,0.95
		C2220.21,746.29,2211.87,729.14,2203.39,723.25z M2308.72,751.65c-5.88-2.91-11.25-5.98-16.9-8.42c-0.31,0.5-0.6,0.75-0.6,0.99
		c0.15,6.23,0.3,12.46,0.53,18.69c0.03,0.68,0.56,1.35,0.87,2.07c5.62-1.48,11.09-2.49,16.09-5.07
		C2308.72,757.11,2308.72,754.58,2308.72,751.65z M2177.15,523.65c-0.64,4.33-0.13,21.92,0.55,24.91c5.9,1.47,11.76,2.94,17.62,4.37
		c0.15,0.04,0.39-0.33,0.74-0.64C2189.91,542.98,2183.77,533.67,2177.15,523.65z M2188.81,736.67c2.15-3.85,5.7-15.88,6.31-20.85
		c-4.7-3.42-9.82-6.09-16.1-7.39c-0.01,3.12-0.41,5.9,0.29,8.92c2.55,0.28,5.03,0.56,7.5,0.84c1.24,2.96,0.59,5.87,0.93,8.68
		C2188.1,729.85,2188.39,732.86,2188.81,736.67z M2365.54,677.48c-1.4,1.21-1.74,3.03-2.64,4.5c-0.82,1.34-0.77,2.67-0.22,4.11
		c1.25,3.28,2.58,6.54,3.58,9.89c1.47,4.95,5.39,7.6,9.51,11.21c-0.15-1.53-0.11-2.29-0.32-2.99
		C2372.57,694.26,2367.53,680.73,2365.54,677.48z M2195.88,743.2c2.18-7.62,4.19-14.64,6.2-21.69c-1.46-1.71-2.79-3.18-5.1-3.99
		c-2.45,8.16-4.82,16.04-7.27,24.19C2191.7,742.2,2193.52,742.64,2195.88,743.2z M2277.21,383.2c-0.33,6.16,0.15,16.38,0.89,19.87
		c1.6,0.5,2.41-0.7,3.11-1.67c3.78-5.21,4.15-10.88,1.95-16.8c-0.86-2.3-1.58-2.65-4.03-2.18
		C2278.54,382.53,2277.99,382.88,2277.21,383.2z M2272.64,477.23c0-8.24,0-16.05-0.03-23.86c0-0.09-0.45-0.18-0.68-0.26
		c-2.51,7.04-5.8,19.49-6.04,23C2267.98,476.7,2270.04,477.52,2272.64,477.23z M2286.58,481.46c-0.19-0.77-0.28-1.4-0.49-1.98
		c-1.83-5.06-3.66-10.12-5.53-15.16c-0.24-0.65-0.38-1.51-1.59-1.46c0.15,3.82,0.26,7.62,0.45,11.41c0.3,6.15,0.34,6.17,6.23,7.49
		C2285.77,481.79,2285.92,481.68,2286.58,481.46z M2355.82,700.14c2.76-3.08,5.66-3.17,8.82-3.16c-0.78-3.74-2.08-6.91-3.69-10.32
		c-2.46,3.11-3.92,6.49-5.6,9.71C2355.01,697.01,2355.53,698.11,2355.82,700.14z M2187.64,748.31c2.72,1.59,5.69,1.22,8.42,1.91
		c2.53,0.65,4.41-0.43,6.62-2.14c-4.83-1.47-9.29-2.26-13.94-3.04C2188.33,746.26,2187.99,747.26,2187.64,748.31z M2170.29,525.82
		c-0.74,1.22-1.14,1.7-1.36,2.25c-2.5,6.35-4.97,12.71-7.42,19.07c-0.08,0.2,0.17,0.53,0.27,0.81c1.13,0.5,1.82-0.02,2.18-1.04
		c2.12-5.98,4.24-11.97,6.29-17.97C2170.49,528.25,2170.29,527.41,2170.29,525.82z M2288.21,765.16c0.43-2.58,0.21-5.2,0.15-7.8
		c-0.07-2.85-0.05-5.72-0.34-8.55c-0.26-2.52,0.28-5.2-1.12-8.02C2286.04,746.67,2286.74,760.97,2288.21,765.16z M2166.16,548
		c0.43-0.31,0.97-0.48,1.09-0.8c1.06-2.83,2.08-5.67,3.01-8.54c0.18-0.55-0.09-1.24-0.21-2.41
		C2167.35,541.68,2166.31,544.84,2166.16,548z M2353.78,699.62c-3.2,4.29-3.2,4.29-3.51,6.86
		C2354.24,703.19,2354.82,702.18,2353.78,699.62z M2170.24,546.03c-0.19-0.03-0.39-0.05-0.58-0.08c-0.16,0.55-0.33,1.09-0.45,1.64
		c-0.02,0.09,0.2,0.33,0.28,0.32c0.26-0.04,0.7-0.13,0.72-0.25C2170.29,547.13,2170.24,546.58,2170.24,546.03z"/>
	<path d="M2335.39,837.21c1.59-0.72,3.22-1.34,4.75-2.16c5.08-2.72,10.24-5.21,15.73-7.02c14.09-4.64,27.97-4.02,41.73,1.39
		c4.75,1.87,9.51,3.74,14.36,5.35c4.25,1.41,8.63,2.31,13.15,2.39c4.24,0.08,8.24-0.74,12.09-2.48c5.09-2.3,10.19-4.58,15.3-6.85
		c16.13-7.15,32.81-7.53,49.79-4.02c0.93,0.19,1.84,0.53,2.74,0.86c0.24,0.09,0.41,0.4,0.64,0.64c-1.76,0-3.49,0.05-5.21-0.01
		c-8.99-0.33-17.88,0.45-26.66,2.41c-5.01,1.12-9.77,2.97-14.34,5.32c-5.83,2.99-11.7,5.89-17.44,9.03
		c-9.21,5.05-18.78,5.62-28.79,3.04c-6.37-1.64-12.39-4.19-18.44-6.7c-3.68-1.53-7.38-3.14-11.23-4.09
		c-10.17-2.53-20.34-1.87-30.25,1.34c-5.15,1.67-10.15,3.83-15.15,5.95c-6.76,2.88-13.47,5.9-20.69,7.48
		c-4.03,0.88-8.06,1.97-13.35,1.22c2.62-0.69,4.23-1.17,5.87-1.54c8.19-1.89,15.64-5.49,22.82-9.73c0.35-0.21,0.53-0.71,0.79-1.07
		c0,0-0.19,0.18-0.19,0.18c0.92,0.05,1.76-0.07,2.14-1.09L2335.39,837.21z"/>
	<path d="M2449.6,862.93c0.11,1.01-0.71,1.35-1.35,1.74c-5.84,3.55-12.19,5.55-19.01,6.04c-7.58,0.55-15.05-0.32-22.29-2.47
		c-7.96-2.36-15.83-5.04-23.7-7.68c-7.12-2.39-14.18-4.92-21.55-6.49c-9.33-1.98-18.37-1.6-27.27,2.11
		c-5.45,2.27-11,4.36-16.61,6.19c-3.62,1.18-7.41,2-11.19,2.51c-5.8,0.78-11.48-0.25-16.99-2.13c-2.42-0.83-4.81-1.74-7.17-2.72
		c-10.15-4.19-20.73-5.02-31.54-4.2c-1.07,0.08-2.13,0.15-3.28-0.31c2.63-0.58,5.23-1.4,7.9-1.69c9.26-1.01,18.51-1.19,27.6,1.39
		c2.61,0.74,5.26,1.37,7.86,2.15c7.17,2.17,14.23,1.66,21.16-0.96c3.58-1.36,7.06-2.97,10.58-4.49c4.1-1.78,8.19-3.61,12.29-5.38
		c8.69-3.74,17.7-3.91,26.84-2.26c9.03,1.63,17.46,5.1,25.88,8.58c7.09,2.92,14.13,5.98,21.28,8.74c5.67,2.19,11.51,3.83,17.61,4.46
		c6.96,0.73,13.71-0.06,20.29-2.43c0.88-0.32,1.83-0.4,2.75-0.6L2449.6,862.93z"/>
	<path d="M2278.88,864.64c-3.53-0.24-6.38-0.51-9.24-0.61c-5.96-0.2-11.82,0.64-17.51,2.35c-11.84,3.57-23.86,4.05-36.07,2.72
		c-10.73-1.18-20.99-3.98-30.9-8.23c-9.12-3.92-18.58-6.74-28.35-8.66c-12.19-2.39-24.16-1.64-36.04,1.65
		c-1.23,0.34-2.45,0.72-3.68,1.06c-0.13,0.04-0.29-0.05-0.84-0.17c0.74-0.54,1.23-1.03,1.81-1.31c13.7-6.79,28.12-9.15,43.31-7.22
		c10.99,1.39,21.63,4.08,32.07,7.74c13.21,4.63,26.81,7.37,40.82,7.58c5.73,0.08,11.51-0.32,17.21-0.95
		c8.25-0.92,16.26-0.26,24.11,2.4C2276.55,863.32,2277.42,863.9,2278.88,864.64z"/>
	<path d="M2362.97,840.42c4.07-1.42,7.4-1.29,10.72-0.98c5.41,0.51,10.71,1.65,15.96,3.04c7.4,1.95,14.79,4.01,22.27,5.56
		c11.41,2.37,22.86,1.99,34.19-0.75c5.78-1.4,11.15-3.84,16.22-6.93c1.33-0.81,2.67-1.6,4-2.39c0.93,1.06,0.11,1.64-0.31,2.17
		c-6.77,8.56-15.53,14.12-26.02,16.93c-10.57,2.83-21.1,2.83-31.61-0.59c-7.15-2.32-14.03-5.26-20.85-8.39
		c-5.81-2.66-11.67-5.18-17.97-6.46C2367.72,841.27,2365.84,840.95,2362.97,840.42z"/>
	<path d="M2330.26,899.55c-0.31,0.64-0.36,0.96-0.54,1.1c-5.23,4.2-10.4,8.47-15.73,12.52c-4.23,3.21-8.96,5.45-14.21,6.62
		c-4.67,1.04-9.22,0.82-13.67-0.78c-3.14-1.13-6.2-2.51-9.24-3.9c-2.75-1.26-5.43-2.69-8.14-4.05c-7.02-3.54-14.39-3.99-21.93-2.28
		c-4.66,1.06-9.27,2.38-13.88,3.64c-5.75,1.57-11.56,2.41-17.52,1.46c-0.44-0.07-0.86-0.24-1.91-0.55c1.21-0.19,1.82-0.38,2.42-0.36
		c4.88,0.15,9.49-1.07,13.99-2.78c2.98-1.14,5.94-2.33,8.92-3.47c4.18-1.6,8.42-2.91,12.85-3.71c6.65-1.2,13.04-0.53,19.19,2.22
		c3.79,1.69,7.6,3.37,11.23,5.36c9.7,5.32,19.23,4.96,28.72-0.43c4.86-2.76,9.67-5.6,14.53-8.35
		C2326.8,900.97,2328.26,900.04,2330.26,899.55z"/>
	<path d="M2405.6,873.67c-2.43,2.06-5.4,2.56-8.42,2.85c-4.67,0.45-9.25-0.3-13.7-1.62c-4.73-1.41-9.4-3.04-14.06-4.65
		c-5.73-1.98-11.46-3.89-17.49-4.79c-4.65-0.69-9.16-0.53-13.68,0.98c-5.14,1.71-10.35,3.22-15.58,4.6
		c-3.54,0.93-7.15,1.64-10.77,2.17c-6.17,0.91-12.05-0.44-17.73-2.8c-0.77-0.32-1.93-0.72-1.26-2.06l-0.04-0.08
		c2.76,1.92,6.01,1.98,9.15,2.3c5.02,0.5,9.89-0.46,14.61-2.09c3.62-1.25,7.16-2.74,10.75-4.08c3.59-1.34,7.22-2.58,10.81-3.93
		c5.91-2.22,11.92-1.96,17.96-0.78c5.04,0.98,9.86,2.67,14.55,4.75c3.51,1.55,6.96,3.24,10.49,4.73c2.94,1.24,5.94,2.34,8.96,3.39
		c3.99,1.39,8.07,1.85,12.28,1.17c1.06-0.17,2.18,0.04,3.28,0.07L2405.6,873.67z"/>
	<path d="M2225.06,895.72c0.63-0.08,1.26-0.25,1.88-0.23c4.28,0.14,8.2-1.08,11.91-3.08c2.95-1.59,5.83-3.32,8.81-4.84
		c4.47-2.28,9.19-3.8,14.26-3.41c2.68,0.21,5.41,0.66,7.96,1.49c4.54,1.48,8.97,3.3,13.43,5.03c2.83,1.1,5.58,2.37,8.43,3.41
		c6.84,2.5,9.19,2.58,15.82,0.79c0.27,1.02-0.61,1.31-1.16,1.69c-3.3,2.26-6.99,3.03-10.93,2.65c-3.82-0.36-7.58-1.05-11.24-2.25
		c-4.7-1.54-9.37-3.17-14.11-4.58c-10.28-3.04-11.51-3.7-23.65,0.76c-3.74,1.37-7.52,2.63-11.33,3.78c-3.17,0.95-6.33,0.44-9.4-0.63
		c-0.24-0.08-0.38-0.47-0.56-0.71L2225.06,895.72z"/>
	<path d="M2172.57,863.42c2.08-0.51,3.46,0.49,4.9,0.93c10.68,3.21,21.3,6.63,32.01,9.74c5.81,1.68,11.75,2.98,17.82,3.4
		c5.44,0.38,10.84,0.32,16.03-1.73c0.4-0.16,0.92-0.02,1.56-0.02c-1.1,1.91-2.89,2.68-4.54,3.57c-5.67,3.03-11.82,3.72-18.11,3.42
		c-7.72-0.37-15.11-2.18-22.25-5.15c-8.26-3.43-16.24-7.42-23.99-11.86C2174.93,865.09,2173.92,864.33,2172.57,863.42z"/>
	<path d="M2087.78,841.06c1.22-1.01,1.54-1.39,1.95-1.61c8.72-4.78,17.9-8.4,27.54-10.89c4.82-1.25,9.55-0.9,14.18,0.48
		c3.5,1.04,6.92,2.45,10.26,3.95c5.53,2.49,10.96,5.2,16.42,7.83c0.23,0.11,0.37,0.43,0.73,0.88c-1.99,0.4-3.84,0.26-5.63-0.19
		c-4.79-1.21-9.56-2.55-14.33-3.82c-3.85-1.03-7.68-2.2-11.58-3.02c-3.77-0.79-7.63-0.85-11.43,0.01c-8.41,1.9-16.8,3.87-25.19,5.8
		C2090.09,840.62,2089.48,840.72,2087.78,841.06z"/>
	<path d="M2300.63,880.45c1.03-0.06,2.06-0.2,3.09-0.18c5.18,0.09,10.16-0.89,15.02-2.59c4.22-1.48,8.44-2.94,12.69-4.33
		c10.22-3.35,20.17-2.43,29.78,2.21c2.86,1.38,5.51,3.21,8.23,4.88c0.48,0.29,0.8,0.83,1.79,1.91c-2.31-0.67-3.81-1.08-5.3-1.53
		c-6.29-1.9-12.69-3.18-19.29-3.32c-4.5-0.1-8.92,0.47-13.27,1.61c-6.18,1.61-12.4,3.04-18.78,3.65
		C2309.76,883.2,2305.17,882.29,2300.63,880.45z"/>
	<path d="M2174.01,896.21c4.29-4.78,9.55-7.49,15.76-8.23c4.7-0.56,9.23,0.05,13.45,2.32c0.84,0.45,1.73,0.83,2.55,1.32
		c5.36,3.18,10.81,6.15,16.83,7.91c0.21,0.06,0.35,0.4,0.65,0.78c-4.55,1.16-8.97,0.79-13.27-0.53c-3.19-0.98-6.24-2.39-9.35-3.62
		c-2.07-0.82-4.11-1.77-6.23-2.42c-4.75-1.46-9.48-0.75-14.15,0.55C2178.15,894.89,2176.09,895.57,2174.01,896.21z"/>
	<path d="M2310.52,889.26c5.85,0.24,11.15-1.52,16.47-3.21c3.64-1.16,7.29-2.29,10.98-3.28c3.58-0.96,7.28-0.99,10.93-0.53
		c4.26,0.54,7.86,2.36,10.67,6.61c-1.24-0.31-1.95-0.41-2.6-0.67c-3.53-1.42-7.15-1.5-10.81-0.72c-5.92,1.25-11.8,2.77-17.76,3.74
		c-3.74,0.61-7.61,0.56-11.42,0.56C2314.61,891.77,2312.33,891.1,2310.52,889.26z"/>
	<path d="M2255.2,873.12c7.53-3.82,14.35-4.48,21.43-1.74c3.45,1.34,6.52,3.33,9.38,5.64c4.43,3.57,8.5,7.62,14.01,10.23
		c-3.18,0.82-3.52,1.01-5.67,0.28c-2.85-0.96-5.71-2.02-8.36-3.42c-3.09-1.63-6.05-3.54-8.92-5.54c-5.58-3.9-11.69-5.66-18.48-5.07
		c-0.63,0.05-1.27,0.03-1.91,0.03C2256.53,873.53,2256.38,873.45,2255.2,873.12z"/>
	<path d="M2146.91,876.61c2.43-1.01,4.46-0.2,6.43,0.87c1.82,0.98,3.63,2,5.44,3.01c3.61,2.03,7.27,2.06,11,0.34
		c2.75-1.27,5.51-2.52,8.3-3.67c2.87-1.18,5.83-1.62,8.87-0.67c0.42,0.13,0.78,0.46,1.16,0.69c-0.18,0.33-0.29,0.78-0.44,0.79
		c-3.15,0.32-5.7,1.89-8.12,3.77c-1.64,1.27-3.24,2.61-4.99,3.7c-6.62,4.12-13.02,3.61-18.95-1.43c-0.85-0.72-1.66-1.5-2.41-2.32
		C2151.4,879.69,2149.52,877.79,2146.91,876.61z"/>
	<path d="M2371.35,901.88c-2.02,1.77-4.39,2.1-6.74,2.33c-1.74,0.17-3.5,0.11-5.26,0.09c-1.59-0.02-3.2-0.01-4.78-0.21
		c-8.31-1.03-15.42,1.42-21.41,7.22c-0.45,0.44-0.98,0.8-1.49,1.17c-0.11,0.09-0.29,0.09-0.78,0.24c0.19-0.74,0.26-1.32,0.49-1.84
		c1.41-3.09,3.42-5.75,5.97-7.99c5.24-4.61,11.35-6.44,18.19-5.02C2360.78,898.97,2365.93,900.49,2371.35,901.88z"/>
	<path d="M2127.3,869.67c4.69-4.75,10.2-7.7,16.73-8.39c3.6-0.38,6.98,0.63,10.15,2.26c1.7,0.87,3.31,1.93,4.84,3.07
		c2.56,1.9,5.08,3.85,8.87,4.28c-2.38,1.5-4.39,1.39-6.39,0.86c-1.54-0.41-3.08-0.86-4.53-1.51c-6.06-2.68-12.37-2.84-18.79-2
		c-3.01,0.4-6,0.9-9,1.33C2128.56,869.66,2127.93,869.64,2127.3,869.67z"/>
	<path d="M2246.46,935.21c11.67-13.34,28.57-12.09,37.11-0.55c-1.05,0.76-2.07,0.23-3.06,0.02c-4.2-0.89-8.37-1.92-12.6-2.63
		c-5.94-1-11.74-0.11-17.39,1.9C2249.52,934.31,2248.47,934.59,2246.46,935.21z"/>
	<path d="M2215.39,927.8c6.62-1.78,11.69-4.4,16.64-7.33c3.87-2.3,8.09-3.8,12.65-4.04c1.57-0.08,3.19,0.08,4.75,0.34
		c1.26,0.22,2.42,0.81,2.89,2.28c-1.81,0.4-3.65,0.62-5.35,1.22c-1.79,0.63-3.47,1.59-5.17,2.47c-5.25,2.73-10.6,5.2-16.55,6
		C2222.22,929.17,2219.22,929.33,2215.39,927.8z"/>
	<path d="M2290.35,927.59c9.43-0.1,18.38-1.02,26.86-4.9c0.5,1.91-0.3,3.11-1.13,4.24c-3,4.05-7.28,5.66-12.09,5.72
		c-4.7,0.07-9.16-1.15-13.16-3.74C2290.63,928.79,2290.62,928.38,2290.35,927.59z"/>
	<path d="M2405.73,873.79c0.13-0.3,0.25-0.61,0.41-0.9c0.01-0.02,0.25,0.09,0.38,0.13c-0.31,0.21-0.61,0.43-0.91,0.64
		C2405.6,873.67,2405.73,873.79,2405.73,873.79z"/>
	<path d="M2292.92,868.34c-0.23,0-0.46,0-0.69,0c0.1,0.07,0.22,0.2,0.3,0.18c0.13-0.03,0.24-0.16,0.36-0.25
		C2292.88,868.27,2292.92,868.34,2292.92,868.34z"/>
	<path d="M2449.69,863.04c0.28-0.24,0.55-0.48,0.83-0.72c0.08,0.12,0.16,0.25,0.24,0.37c-0.39,0.08-0.77,0.16-1.16,0.24
		C2449.6,862.93,2449.69,863.04,2449.69,863.04z"/>
	<path d="M2225.16,895.6c-0.28-0.01-0.55-0.01-0.82-0.05c-0.12-0.02-0.22-0.15-0.34-0.22c0.22-0.09,0.51-0.32,0.66-0.25
		c0.19,0.09,0.27,0.42,0.4,0.64C2225.06,895.72,2225.16,895.6,2225.16,895.6z"/>
	<path class="st0" d="M2166.16,548"/>
	<path class="st0" d="M2167.25,547.19"/>
	<path class="st0" d="M2170.26,538.65"/>
	<path class="st0" d="M2170.04,536.25"/>
</g>
</svg>
